<svg xmlns="http://www.w3.org/2000/svg" width="105" height="90" viewBox="0 0 105 90" fill="none" overflow="visible">
  <path
    fill-rule="evenodd"
    clip-rule="evenodd"
    d="M93.1489 6.54565C81.4445 -3.3175 63.196 -1.81681 52 9.58158C40.804 -1.81681 22.5555 -3.31751 10.8511 6.54563C-4.3731 19.3608 -2.14674 40.257 8.70864 51.3346L44.2219 87.5142C46.2458 89.5826 49.122 90.7328 52 90.7328C54.878 90.7328 57.7542 89.5826 59.7781 87.5143L95.2914 51.3346C106.147 40.2571 108.373 19.3608 93.1489 6.54565ZM52 90.7328C52.0024 90.7329 52.0051 90.7326 52.0073 90.7326C52.0175 90.7328 52.0227 90.7328 52 90.7328C51.9774 90.7328 51.9824 90.7328 51.9926 90.7326C51.995 90.7326 51.9973 90.7329 52 90.7328ZM52 90.7316C51.9722 90.732 51.9861 90.7326 52 90.7328C52.0137 90.7326 52.0274 90.732 52 90.7316ZM58.6566 79.0362C56.92 80.6743 54.4694 81.5845 52 81.5845C49.5306 81.5845 47.08 80.6743 45.3434 79.0362L15.3343 50.3821C6.01986 41.6087 2.27117 22.6937 15.3342 12.5441C25.3771 4.73257 42.3933 8.8664 52 17.8939C61.6067 8.8664 78.6229 4.73259 88.6658 12.5441C101.729 22.6937 97.9801 41.6087 88.6658 50.3821L58.6566 79.0362Z"
    fill="#000000"
    transform="translate(0.5, 1)"
    overflow="visible"
  />
</svg>